<svg width="64" height="64" viewBox="0 0 64 64" fill="none" xmlns="http://www.w3.org/2000/svg">
<path fill-rule="evenodd" clip-rule="evenodd" d="M60 32C60 47.464 47.464 60 32 60C16.536 60 4 47.464 4 32C4 16.536 16.536 4 32 4C47.464 4 60 16.536 60 32ZM64 32C64 49.6731 49.6731 64 32 64C14.3269 64 0 49.6731 0 32C0 14.3269 14.3269 0 32 0C49.6731 0 64 14.3269 64 32ZM22.6733 10.492C20.6418 11.7879 20.0455 14.4854 21.3414 16.5169L22.3288 18.0647L17.7575 20.9808C16.2182 21.9628 15.7663 24.0067 16.7483 25.5461L20.082 30.7721C21.064 32.3114 23.108 32.7633 24.6474 31.7813L36.5737 24.1733C35.5917 22.6339 33.5478 22.182 32.0084 23.164L27.4389 26.079L24.1051 20.8531L28.6747 17.9381C30.2141 16.9561 30.6659 14.9121 29.6839 13.3727L29.6856 13.3716L28.6983 11.8239C27.4023 9.79234 24.7048 9.19603 22.6733 10.492ZM29.2188 28.8655L33.6637 35.8334L29.0925 38.7494C27.5531 39.7314 27.1013 41.7754 28.0833 43.3148L31.4171 48.541L38.774 43.8479L35.4401 38.6218L40.0096 35.7068C41.5489 34.7249 42.0008 32.6811 41.0191 31.1418L41.0208 31.1407L36.5756 24.1724L29.2188 28.8655ZM47.9088 41.9422L47.9106 41.9411L48.8979 43.4889C50.1939 45.5204 49.5975 48.2179 47.566 49.5138C45.5345 50.8098 42.837 50.2135 41.5411 48.1819L40.5541 46.6347L35.9828 49.5508C34.4435 50.5328 32.3995 50.0809 31.4175 48.5416L43.3438 40.9335C44.883 39.9516 46.9267 40.4033 47.9088 41.9422Z" fill="#F8FAFC"/>
</svg>
