<?xml version="1.0" encoding="UTF-8" standalone="no"?>
<!-- Created with Inkscape (http://www.inkscape.org/) -->

<svg
   width="30"
   height="30"
   viewBox="0 0 7.9374998 7.9375002"
   version="1.1"
   id="svg5"
   xmlns="http://www.w3.org/2000/svg"
   xmlns:svg="http://www.w3.org/2000/svg">
  <defs
     id="defs2" />
  <g
     id="layer1">
    <path
       id="rect848"
       style="fill:#4c4d50;fill-opacity:1;stroke:none;stroke-width:0.0815084;stroke-miterlimit:4;stroke-dasharray:none;stroke-opacity:1"
       d="m 4.7500054,1.0710177e-4 c -0.111896,-2.5e-4 -1.006038,0.0208999982 -0.973001,0.77461999823 0.01263,0.28853 0.248152,0.44913 0.397682,0.52245 0.04676,0.0229 0.04658,0.16376 0.04122,0.25627 h -2.630031 v 2.64072 c -0.08344,0.007 -0.26887,0.016 -0.295406,-0.0387 -0.07294,-0.1503 -0.232724,-0.38703 -0.51978299,-0.39972 -0.799841,-0.0354 -0.7705499957,0.98946 -0.7705499957,0.98946 H 1.5858754 v 5.3e-4 H 1.364143e-4 c 0,0 -0.0292900043,1.02488 0.7705499957,0.98947 0.28705899,-0.0127 0.44684299,-0.24929 0.51978299,-0.39959 0.02654,-0.0547 0.211961,-0.0456 0.295406,-0.0387 v 2.64058 h 2.627537 c 0.0069,-0.0855 0.01492,-0.26678 -0.03873,-0.29309 -0.14953,-0.0733 -0.385056,-0.23404 -0.397682,-0.52257 -0.03524,-0.80394 0.984423,-0.77436 0.984423,-0.77436 v 1.59002 h 5.29e-4 v -1.59005 c 0,0 1.019663,-0.0296 0.984424,0.77436 -0.01262,0.28853 -0.248021,0.44927 -0.39755,0.52258 -0.05365,0.0263 -0.04561,0.20764 -0.03873,0.29309 h 2.627405 v -2.64217 c -0.09032,-0.006 -0.248937,-0.0101 -0.273349,0.0402 -0.07294,0.15029 -0.232724,0.38689 -0.519783,0.39958 -0.79984,0.0354 -0.770418,-0.98946 -0.770418,-0.98946 h 1.56355 v -5.3e-4 h -1.56355 c 0,0 -0.02942,-1.02488 0.770418,-0.98946 0.287059,0.0127 0.446844,0.24942 0.519783,0.39972 0.02441,0.0503 0.183027,0.0466 0.273349,0.0403 v -2.64231 h -2.629909 c -0.0054,-0.0925 -0.0055,-0.23334 0.04123,-0.25628 0.14953,-0.0733 0.384924,-0.23391 0.39755,-0.52244 0.03524,-0.80393 -0.984423,-0.77448999823 -0.984423,-0.77448999823 V 1.5533471 h -5.29e-4 V 1.3710177e-4 c 0,0 -0.004,-1.09999998e-4 -0.01142,-1.299999978e-4 z" />
  </g>
</svg>
